<?xml version="1.0" encoding="utf-8"?>
<!-- Generator: Adobe Illustrator 28.3.0, SVG Export Plug-In . SVG Version: 6.00 Build 0)  -->
<svg version="1.1" id="Capa_1" xmlns="http://www.w3.org/2000/svg" xmlns:xlink="http://www.w3.org/1999/xlink" x="0px" y="0px"
	 viewBox="0 0 2834.65 2834.65" style="enable-background:new 0 0 2834.65 2834.65;" xml:space="preserve">
<style type="text/css">
	.st0{fill:#18509C;}
	.st1{fill:#E21412;}
</style>
<g>
	<g>
		<path class="st0" d="M1483.06,967.4l-5.89,49.58c-10.17,1.44-24,2.16-41.48,2.16c-20.88,0-36.71-2.4-47.51-7.19
			c-10.8-4.79-18.69-11.18-23.69-19.16c-5-7.99-7.49-19.96-7.49-35.93c-4.64,0.64-8.74,0.96-12.31,0.96
			c-41.75,0-74.45-13.37-98.09-40.12c-23.64-26.74-35.46-61.76-35.46-105.03c0-49.66,15.43-95.01,46.3-136.05
			c30.87-41.04,72.97-61.56,126.33-61.56c43.53,0,77.44,12.98,101.7,38.92c24.26,25.95,36.4,62.64,36.4,110.06
			c0,41.04-10.4,78.37-31.18,111.98c-20.79,33.62-48.58,56.73-83.37,69.34c0.18,16.44,15.34,24.67,45.5,24.67
			C1463.34,970.03,1473.43,969.15,1483.06,967.4z M1280.46,825.36c0,26.35,5.98,46.83,17.93,61.44
			c11.95,14.61,27.92,21.92,47.91,21.92c36.57,0,63.61-16.61,81.1-49.82c17.48-33.21,26.23-67.94,26.23-104.19
			c0-61.32-24-91.98-72-91.98c-32.12,0-57.01,17.37-74.67,52.1C1289.29,749.55,1280.46,786.4,1280.46,825.36z"/>
		<path class="st0" d="M1765.42,950.15h-55.67l9.9-53.17c-23.02,38.48-53.8,57.73-92.34,57.73c-21.41,0-37.83-6.15-49.25-18.44
			c-11.42-12.29-17.13-25.95-17.13-40.96c0-7.82,2.32-23.95,6.96-48.38l26.23-140.36h59.95l-28.37,151.14
			c-2.5,13.89-3.75,22.44-3.75,25.63c0,7.83,2.76,14.05,8.3,18.68c5.53,4.63,12.75,6.95,21.68,6.95c12.31,0,24.89-4.55,37.74-13.65
			s21.95-19.76,27.3-31.98c5.35-12.22,10.26-30.14,14.72-53.77l19.27-103h59.95L1765.42,950.15z"/>
		<path class="st0" d="M2064.38,950.15h-59.15c-0.36-4.31-0.54-7.82-0.54-10.54c0-11.65,1.61-25.63,4.82-41.92
			c-8.92,18.2-21.77,32.54-38.54,42.99c-16.77,10.46-35.24,15.69-55.4,15.69c-24.27,0-44.03-6.74-59.28-20.24
			c-15.26-13.49-22.88-30.14-22.88-49.94c0-27.31,13.6-49.02,40.82-65.15c27.21-16.13,69.81-24.19,127.8-24.19
			c7.49,0,16.23,0.32,26.23,0.96c1.25-7.34,1.87-13.17,1.87-17.49c0-13.09-5.04-22.99-15.12-29.7
			c-10.08-6.71-22.62-10.06-37.6-10.06c-28.73,0-49.69,11.26-62.9,33.77l-53.53-15.09c22.48-39.6,62.18-59.4,119.1-59.4
			c33.9,0,60.66,6.87,80.29,20.6c19.63,13.73,29.44,32.02,29.44,54.85c0,9.74-4.28,35.45-12.85,77.13
			c-9.1,43.92-13.65,71.78-13.65,83.59C2063.31,940.33,2063.66,945.04,2064.38,950.15z M2022.89,825.84
			c-46.57,2.24-78.95,7.75-97.15,16.53c-18.2,8.78-27.3,21.64-27.3,38.56c0,9.74,3.65,17.69,10.97,23.83
			c7.31,6.15,17.3,9.22,29.98,9.22c18.2,0,35.06-7.14,50.58-21.44C2005.5,878.26,2016.47,856.02,2022.89,825.84z"/>
		<path class="st0" d="M2194.98,950.15h-62.9l61.02-326.95h62.9L2194.98,950.15z"/>
		<path class="st0" d="M2330.95,950.15h-62.9l45.5-243.6h62.9L2330.95,950.15z M2381.8,678.29h-62.9l10.97-58.44h62.9L2381.8,678.29
			z"/>
		<path class="st0" d="M2531.41,950.63c-18.02,2.4-30.78,3.59-38.27,3.59c-25.16,0-43.58-5.07-55.27-15.21
			c-11.69-10.14-17.53-22.47-17.53-37.01c0-7.5,2.05-22.11,6.16-43.83l20.61-107.79h-40.41l8.3-43.83h40.95l16.33-65.63l54.6-3.35
			l-12.85,68.98h58.61l-8.03,43.83h-58.88l-20.34,108.5c-2.5,13.41-3.75,22.04-3.75,25.87c0,15.49,12.85,23.23,38.54,23.23
			c5.35,0,11.86-0.56,19.54-1.68L2531.41,950.63z"/>
		<path class="st0" d="M2550.68,1036.62l2.68-46.47c10.35,1.44,22.3,2.16,35.86,2.16c12.67,0,23.15-2.36,31.45-7.07
			c8.3-4.71,15.83-13.53,22.62-26.47l10.17-19.4l-66.64-232.82h64.23l41.22,167.67l89.93-167.67h52.46l-139.71,252.22
			c-13.03,23.31-23.02,39.44-29.98,48.38c-6.96,8.94-17.09,16.44-30.38,22.52c-13.29,6.07-30.47,9.1-51.52,9.1
			C2573.07,1038.78,2562.28,1038.06,2550.68,1036.62z"/>
	</g>
</g>
<g>
	<g>
		<path class="st0" d="M1746.98,1320.48h-62.35l25.2-134.61h-135.9l-25.2,134.61h-62.1l58.03-310.9H1607l-23.92,127.32h135.9
			l23.92-127.32h62.1L1746.98,1320.48z"/>
		<path class="st0" d="M2046.53,1255.11c-23.76,47.38-61.42,71.06-113,71.06c-33.94,0-60.62-9.34-80.04-28.02
			c-19.43-18.68-29.14-43.5-29.14-74.48c0-39.48,12.26-72.81,36.78-99.99c24.52-27.18,56.03-40.77,94.55-40.77
			c34.61,0,60.78,9.79,78.51,29.38c17.73,19.59,26.6,46.32,26.6,80.17c0,5.62-0.25,11.69-0.76,18.22h-177.9
			c-1.19,6.53-1.78,12.3-1.78,17.31c0,17.46,4.71,31.51,14.12,42.14c9.42,10.63,22.78,15.94,40.08,15.94
			c26.81,0,47.17-14.35,61.08-43.05L2046.53,1255.11z M2006.83,1177.67c0-39.18-16.97-58.76-50.9-58.76
			c-35.12,0-57.69,19.59-67.7,58.76H2006.83z"/>
		<path class="st0" d="M2151.64,1320.48h-59.81l58.03-310.9h59.81L2151.64,1320.48z"/>
		<path class="st0" d="M2262.86,1401.34h-57.01l58.54-312.5h50.9l-8.91,47.83c21.38-37.05,48.18-55.58,80.42-55.58
			c24.26,0,43.94,8.81,59.04,26.42c15.1,17.62,22.65,41.38,22.65,71.29c0,37.2-10.22,71.22-30.67,102.04
			c-20.45,30.83-47.13,46.24-80.04,46.24c-35.46,0-59.55-15.87-72.28-47.6L2262.86,1401.34z M2347.1,1285.4
			c19.85,0,35.16-11.2,45.94-33.6c10.77-22.4,16.16-45.44,16.16-69.13c0-39.93-13.58-59.9-40.72-59.9
			c-20.53,0-37.71,10.9-51.54,32.68c-13.83,21.79-20.74,45.82-20.74,72.09c0,19.29,4.96,33.75,14.89,43.39
			C2321.01,1280.59,2333.01,1285.4,2347.1,1285.4z"/>
	</g>
</g>
<polygon class="st1" points="372.78,2061.24 483.88,1419.02 395.16,1501.07 299.25,1436.03 173.23,1491.77 0,1491.77 0,1423.72 
	158.85,1423.72 306.23,1358.53 388.63,1414.42 585.19,1232.62 506.11,1689.76 1002.53,818.47 975.75,1437.83 1113.55,1336.75 
	1219.46,1434.71 2834.64,1434.71 2834.64,1502.76 1192.82,1502.76 1108.54,1424.82 901.63,1576.6 922.39,1096.6 "/>
<g>
	<g>
		<path class="st0" d="M1188.18,1679.99l-18.03,5.98c-3.86-8.16-10.84-12.24-20.93-12.24c-6.12,0-10.88,1.29-14.29,3.85
			c-3.41,2.57-5.11,5.75-5.11,9.54c0,2.93,1.15,5.32,3.46,7.17c2.31,1.85,6.12,3.45,11.43,4.79l15.05,3.96
			c4.35,1.11,8.48,2.86,12.39,5.26c3.92,2.4,6.84,5.4,8.77,9s2.9,7.39,2.9,11.38c0,8.93-3.72,16.67-11.15,23.23
			c-7.43,6.55-18.28,9.83-32.55,9.83c-22.11,0-36.43-8.16-42.98-24.49l17.95-5.69c4.35,10.28,13.09,15.41,26.24,15.41
			c7.51,0,13.09-1.55,16.74-4.65c3.65-3.1,5.47-6.61,5.47-10.55c0-2.26-0.68-4.21-2.05-5.87c-1.37-1.66-3.1-2.92-5.19-3.78
			c-2.09-0.86-6.28-2.09-12.56-3.67c-8.75-2.26-15.28-4.39-19.6-6.41c-4.32-2.02-7.83-4.95-10.54-8.79
			c-2.71-3.84-4.06-8.4-4.06-13.69c0-8.98,3.62-16.33,10.86-22.04c7.24-5.71,17.12-8.57,29.62-8.57
			C1168.49,1658.96,1181.21,1665.97,1188.18,1679.99z"/>
		<path class="st0" d="M1265.36,1738.98c-7.51,14.98-19.42,22.47-35.73,22.47c-10.73,0-19.17-2.95-25.31-8.86
			c-6.14-5.91-9.21-13.76-9.21-23.55c0-12.48,3.88-23.02,11.63-31.62c7.75-8.59,17.72-12.89,29.9-12.89
			c10.95,0,19.22,3.1,24.83,9.29c5.61,6.19,8.41,14.65,8.41,25.35c0,1.78-0.08,3.7-0.24,5.76h-56.26c-0.38,2.07-0.56,3.89-0.56,5.47
			c0,5.52,1.49,9.96,4.47,13.33c2.98,3.36,7.2,5.04,12.68,5.04c8.48,0,14.92-4.54,19.32-13.61L1265.36,1738.98z M1252.81,1714.49
			c0-12.39-5.37-18.58-16.1-18.58c-11.11,0-18.24,6.19-21.41,18.58H1252.81z"/>
		<path class="st0" d="M1297.72,1759.65h-18.03l13.68-73.25h16.58l-3.7,19.95c7.03-14.65,16.47-21.97,28.33-21.97
			c0.48,0,1.21,0.02,2.17,0.07l-2.33,18.01c-1.77-0.1-3.11-0.14-4.02-0.14c-4.45,0-8.65,1.06-12.6,3.17
			c-3.94,2.11-7.03,4.96-9.26,8.54c-2.23,3.58-4.09,9.45-5.59,17.61L1297.72,1759.65z"/>
		<path class="st0" d="M1377.39,1759.65h-16.82l-17.38-73.25h19.72l10.87,51.28l26.64-51.28h15.94L1377.39,1759.65z"/>
		<path class="st0" d="M1433.57,1759.65h-18.91l13.68-73.25h18.91L1433.57,1759.65z M1448.86,1677.9h-18.91l3.3-17.58h18.91
			L1448.86,1677.9z"/>
		<path class="st0" d="M1524.43,1737.9c-7.73,15.56-19.32,23.34-34.77,23.34c-9.6,0-17.44-2.89-23.5-8.68
			c-6.06-5.79-9.09-13.91-9.09-24.38c0-11.81,3.73-22.09,11.19-30.83c7.46-8.74,16.82-13.11,28.09-13.11
			c8.53,0,15.65,2.22,21.37,6.66s9.3,10.74,10.74,18.91l-15.29,2.67c-2.15-9.6-7.49-14.41-16.02-14.41
			c-6.33,0-11.48,3.22-15.45,9.65c-3.97,6.44-5.96,13.85-5.96,22.26c0,6.39,1.5,10.91,4.51,13.58c3,2.67,6.57,4,10.7,4
			c8.05,0,14.16-4.83,18.35-14.48L1524.43,1737.9z"/>
		<path class="st0" d="M1553.24,1759.65h-18.91l13.68-73.25h18.91L1553.24,1759.65z M1568.54,1677.9h-18.91l3.3-17.58h18.91
			L1568.54,1677.9z"/>
		<path class="st0" d="M1611.75,1761.52c-6.06,0-11.93-1.2-17.59-3.6c-5.66-2.4-9.98-6.21-12.96-11.42s-4.47-11.42-4.47-18.62
			c0-11.67,3.84-21.76,11.51-30.29c7.67-8.52,17.71-12.79,30.1-12.79c10.19,0,18.35,3.06,24.47,9.18s9.17,14.35,9.17,24.67
			c0,10.61-3.65,20.41-10.95,29.39C1633.75,1757.03,1623.99,1761.52,1611.75,1761.52z M1611.91,1748.34c7.3,0,12.66-3.37,16.1-10.12
			c3.43-6.75,5.15-13.82,5.15-21.21c0-12.68-5.47-19.02-16.42-19.02c-7.67,0-13.17,3.63-16.5,10.88
			c-3.33,7.25-4.99,14.48-4.99,21.68c0,6.1,1.61,10.59,4.83,13.47C1603.3,1746.9,1607.25,1748.34,1611.91,1748.34z"/>
		<path class="st0" d="M1769.09,1759.65h-17.54l2.82-15.13c-6.6,11.19-15.24,16.78-25.92,16.78c-7.35,0-13.27-2.63-17.75-7.89
			c-4.48-5.26-6.72-12.64-6.72-22.15c0-12.96,3.41-24.09,10.22-33.38c6.81-9.29,15.48-13.94,26-13.94c11.27,0,18.7,4.85,22.29,14.55
			l7-37.17h18.03L1769.09,1759.65z M1735.78,1748.13c6.97,0,12.53-3.49,16.66-10.48c4.13-6.99,6.2-14.63,6.2-22.94
			c0-5.14-1.38-9.29-4.14-12.46c-2.76-3.17-6.43-4.75-10.99-4.75c-6.98,0-12.23,3.61-15.77,10.84c-3.54,7.23-5.31,15.26-5.31,24.09
			C1722.42,1742.89,1726.87,1748.13,1735.78,1748.13z"/>
		<path class="st0" d="M1862.77,1738.98c-7.51,14.98-19.42,22.47-35.73,22.47c-10.73,0-19.17-2.95-25.31-8.86
			c-6.14-5.91-9.22-13.76-9.22-23.55c0-12.48,3.88-23.02,11.63-31.62c7.75-8.59,17.72-12.89,29.9-12.89
			c10.95,0,19.22,3.1,24.83,9.29c5.61,6.19,8.41,14.65,8.41,25.35c0,1.78-0.08,3.7-0.24,5.76h-56.26c-0.38,2.07-0.56,3.89-0.56,5.47
			c0,5.52,1.49,9.96,4.47,13.33c2.98,3.36,7.2,5.04,12.68,5.04c8.48,0,14.92-4.54,19.32-13.61L1862.77,1738.98z M1850.22,1714.49
			c0-12.39-5.37-18.58-16.1-18.58c-11.11,0-18.24,6.19-21.41,18.58H1850.22z"/>
		<path class="st0" d="M2006.67,1759.65h-21.97l-4.51-23.77h-39.84l-12.23,23.77h-18.59l52.63-98.32h24.39L2006.67,1759.65z
			 M1978.34,1722.2l-8.61-43.65l-22.62,43.65H1978.34z"/>
		<path class="st0" d="M2136.17,1759.65h-18.91l8.29-44.3c0.7-3.6,1.05-6.15,1.05-7.63c0-6.48-3.84-9.72-11.51-9.72
			c-11.96,0-19.83,9.84-23.58,29.53l-6.12,32.12h-17.95l7.97-42.64c0.91-4.9,1.37-8.28,1.37-10.16c0-6.05-3.35-9.08-10.06-9.08
			c-5.31,0-10.26,2.27-14.85,6.81c-4.59,4.54-8.3,14.47-11.15,29.78l-4.75,25.28h-18.35l13.68-73.25h18.03l-3.06,16.35
			c2.42-5.67,6.06-10.19,10.95-13.58c4.88-3.38,10.06-5.08,15.53-5.08c12.56,0,19.69,5.76,21.41,17.29
			c7.83-11.52,17.49-17.29,28.97-17.29c6.49,0,11.9,1.83,16.22,5.47c4.32,3.65,6.48,8.38,6.48,14.19c0,2.88-0.62,7.66-1.85,14.33
			L2136.17,1759.65z"/>
		<path class="st0" d="M2166.43,1759.65h-8.29l18.35-98.32h18.03l-7,37.6c6.97-10.27,15.26-15.41,24.87-15.41
			c7.35,0,13.21,2.76,17.58,8.28c4.37,5.52,6.56,12.65,6.56,21.39c0,11.38-3.39,22.2-10.18,32.45
			c-6.79,10.25-16.16,15.38-28.13,15.38c-11.21,0-19.24-4.61-24.06-13.83L2166.43,1759.65z M2197.25,1747.41
			c6.6,0,11.75-3.7,15.45-11.09c3.7-7.39,5.55-14.93,5.55-22.62c0-11.04-4.32-16.57-12.96-16.57c-6.76,0-12.33,3.77-16.7,11.31
			c-4.37,7.54-6.56,15.44-6.56,23.7c0,4.75,1.56,8.49,4.67,11.2C2189.82,1746.05,2193.34,1747.41,2197.25,1747.41z"/>
		<path class="st0" d="M2310.65,1759.65h-16.74l2.98-15.99c-6.92,11.57-16.18,17.36-27.77,17.36c-6.44,0-11.38-1.85-14.81-5.55
			c-3.43-3.7-5.15-7.8-5.15-12.32c0-2.35,0.7-7.2,2.09-14.55l7.89-42.21h18.03l-8.53,45.45c-0.75,4.18-1.13,6.75-1.13,7.71
			c0,2.35,0.83,4.23,2.49,5.62c1.66,1.39,3.84,2.09,6.52,2.09c3.7,0,7.48-1.37,11.35-4.11s6.6-5.94,8.21-9.62
			c1.61-3.67,3.08-9.06,4.43-16.17l5.79-30.97h18.03L2310.65,1759.65z"/>
		<path class="st0" d="M2351.54,1759.65h-18.91l18.35-98.32h18.91L2351.54,1759.65z"/>
		<path class="st0" d="M2441.43,1759.65h-17.79c-0.11-1.3-0.16-2.35-0.16-3.17c0-3.5,0.48-7.71,1.45-12.6
			c-2.68,5.47-6.55,9.78-11.59,12.93c-5.04,3.14-10.6,4.72-16.66,4.72c-7.3,0-13.24-2.03-17.83-6.09
			c-4.59-4.06-6.88-9.06-6.88-15.02c0-8.21,4.09-14.74,12.27-19.59c8.18-4.85,20.99-7.27,38.43-7.27c2.25,0,4.88,0.1,7.89,0.29
			c0.38-2.21,0.56-3.96,0.56-5.26c0-3.94-1.52-6.91-4.55-8.93c-3.03-2.02-6.8-3.03-11.31-3.03c-8.64,0-14.94,3.39-18.91,10.16
			l-16.1-4.54c6.76-11.91,18.7-17.86,35.81-17.86c10.19,0,18.24,2.06,24.14,6.19c5.9,4.13,8.85,9.63,8.85,16.49
			c0,2.93-1.29,10.66-3.86,23.19c-2.74,13.21-4.1,21.58-4.1,25.14C2441.11,1756.7,2441.22,1758.11,2441.43,1759.65z
			 M2428.96,1722.27c-14,0.67-23.74,2.33-29.21,4.97c-5.47,2.64-8.21,6.51-8.21,11.6c0,2.93,1.1,5.32,3.3,7.17
			c2.2,1.85,5.2,2.77,9.01,2.77c5.47,0,10.54-2.15,15.21-6.45C2423.73,1738.03,2427.03,1731.34,2428.96,1722.27z"/>
		<path class="st0" d="M2528.35,1759.65h-18.03l8.37-44.01c0.59-3.31,0.89-6.15,0.89-8.5c0-2.69-0.85-4.96-2.54-6.81
			c-1.69-1.85-4.25-2.77-7.69-2.77c-5.47,0-10.3,2.48-14.49,7.46c-4.18,4.97-7.14,12.18-8.85,21.64l-6.2,32.99h-18.03l13.68-73.25
			h16.74l-3.22,17.07c5.1-8.55,9.82-13.87,14.17-15.95c4.35-2.09,8.58-3.13,12.72-3.13c5.96,0,11.12,1.81,15.49,5.44
			c4.37,3.63,6.56,8.68,6.56,15.16c0,2.54-0.54,6.6-1.61,12.17L2528.35,1759.65z"/>
		<path class="st0" d="M2619.22,1737.9c-7.73,15.56-19.32,23.34-34.77,23.34c-9.6,0-17.44-2.89-23.5-8.68
			c-6.06-5.79-9.09-13.91-9.09-24.38c0-11.81,3.73-22.09,11.19-30.83c7.46-8.74,16.82-13.11,28.09-13.11
			c8.53,0,15.65,2.22,21.37,6.66c5.71,4.44,9.3,10.74,10.74,18.91l-15.29,2.67c-2.15-9.6-7.48-14.41-16.02-14.41
			c-6.33,0-11.48,3.22-15.45,9.65c-3.97,6.44-5.96,13.85-5.96,22.26c0,6.39,1.5,10.91,4.51,13.58c3,2.67,6.57,4,10.7,4
			c8.05,0,14.17-4.83,18.35-14.48L2619.22,1737.9z"/>
		<path class="st0" d="M2648.03,1759.65h-18.91l13.68-73.25h18.91L2648.03,1759.65z M2663.32,1677.9h-18.91l3.3-17.58h18.91
			L2663.32,1677.9z"/>
		<path class="st0" d="M2737.93,1759.65h-17.79c-0.11-1.3-0.16-2.35-0.16-3.17c0-3.5,0.48-7.71,1.45-12.6
			c-2.68,5.47-6.55,9.78-11.59,12.93c-5.04,3.14-10.6,4.72-16.66,4.72c-7.3,0-13.24-2.03-17.83-6.09
			c-4.59-4.06-6.88-9.06-6.88-15.02c0-8.21,4.09-14.74,12.27-19.59c8.18-4.85,20.99-7.27,38.43-7.27c2.25,0,4.88,0.1,7.89,0.29
			c0.38-2.21,0.56-3.96,0.56-5.26c0-3.94-1.52-6.91-4.55-8.93c-3.03-2.02-6.8-3.03-11.31-3.03c-8.64,0-14.94,3.39-18.91,10.16
			l-16.1-4.54c6.76-11.91,18.7-17.86,35.81-17.86c10.19,0,18.24,2.06,24.14,6.19c5.9,4.13,8.85,9.63,8.85,16.49
			c0,2.93-1.29,10.66-3.86,23.19c-2.74,13.21-4.1,21.58-4.1,25.14C2737.61,1756.7,2737.71,1758.11,2737.93,1759.65z
			 M2725.45,1722.27c-14,0.67-23.74,2.33-29.21,4.97c-5.47,2.64-8.21,6.51-8.21,11.6c0,2.93,1.1,5.32,3.3,7.17
			c2.2,1.85,5.2,2.77,9.01,2.77c5.47,0,10.54-2.15,15.21-6.45C2720.22,1738.03,2723.52,1731.34,2725.45,1722.27z"/>
	</g>
</g>
</svg>
